<?xml version="1.0" encoding="utf-8"?>
<!-- Generator: Adobe Illustrator 24.2.1, SVG Export Plug-In . SVG Version: 6.00 Build 0)  -->
<svg version="1.1" id="Layer_1" xmlns="http://www.w3.org/2000/svg" xmlns:xlink="http://www.w3.org/1999/xlink" x="0px" y="0px"
	 viewBox="0 0 64 64" style="enable-background:new 0 0 64 64;" xml:space="preserve">
<style type="text/css">
	.st0{fill:#0276FF;}
</style>
<g>
	<path class="st0" d="M4.7,39.1c0,0.3,0,0.6,0.1,0.8C4.9,40,5,40.2,5.2,40.3c0.2,0.1,0.3,0.2,0.6,0.2s0.5,0.1,0.8,0.1v1.4
		c-0.5,0-1-0.1-1.4-0.2c-0.4-0.1-0.8-0.3-1.1-0.5c-0.3-0.2-0.5-0.5-0.7-0.9c-0.2-0.4-0.3-0.8-0.3-1.3v-4.6c0-0.7-0.2-1.1-0.6-1.4
		s-1-0.4-1.8-0.4v-1.5c0.8,0,1.4-0.1,1.8-0.4s0.6-0.7,0.6-1.4v-4.7c0-0.5,0.1-0.9,0.3-1.3c0.2-0.4,0.4-0.6,0.7-0.9
		c0.3-0.2,0.7-0.4,1.1-0.5C5.5,22,6,21.9,6.5,21.9v1.4c-0.3,0-0.5,0-0.8,0.1c-0.2,0-0.4,0.1-0.6,0.2C5,23.8,4.9,24,4.8,24.1
		c-0.1,0.2-0.1,0.4-0.1,0.8v4.6c0,0.7-0.2,1.2-0.5,1.6c-0.4,0.4-0.9,0.7-1.6,0.8v0.1c0.7,0.1,1.2,0.4,1.6,0.8
		c0.4,0.4,0.5,0.9,0.5,1.6V39.1z"/>
	<path d="M21.2,38.7l-0.3-1.5h-0.1c-0.5,0.7-1.1,1.1-1.6,1.4s-1.2,0.4-2,0.4c-1.1,0-1.9-0.3-2.5-0.8c-0.6-0.6-0.9-1.3-0.9-2.4
		c0-2.2,1.7-3.3,5.2-3.4l1.8-0.1v-0.6c0-0.8-0.2-1.4-0.5-1.8s-0.9-0.6-1.7-0.6c-0.6,0-1.1,0.1-1.6,0.3c-0.5,0.2-1,0.4-1.4,0.6
		l-0.5-1.3c0.5-0.3,1.1-0.5,1.8-0.7s1.3-0.2,1.9-0.2c1.3,0,2.3,0.3,2.9,0.9s1,1.5,1,2.8v7.4H21.2z M17.5,37.5c1,0,1.8-0.3,2.3-0.8
		s0.9-1.3,0.9-2.3v-1l-1.6,0.1c-1.2,0-2.1,0.2-2.7,0.6c-0.6,0.3-0.9,0.9-0.9,1.6c0,0.6,0.2,1,0.5,1.3S16.9,37.5,17.5,37.5z"/>
	<path d="M27.6,38.7h-1.8V23.4h1.8V38.7z"/>
	<path d="M35.6,38.9c-1.6,0-2.9-0.5-3.8-1.5s-1.4-2.3-1.4-4.1c0-1.7,0.4-3.1,1.3-4.1s2-1.5,3.5-1.5c1.4,0,2.4,0.4,3.3,1.3
		c0.8,0.9,1.2,2.1,1.2,3.6v1.1h-7.4c0,1.2,0.3,2.2,0.9,2.8c0.6,0.6,1.4,1,2.5,1c0.6,0,1.1-0.1,1.6-0.2s1.1-0.3,1.8-0.6v1.6
		c-0.6,0.3-1.2,0.4-1.7,0.5S36.4,38.9,35.6,38.9z M35.2,29.2c-0.8,0-1.5,0.3-2,0.8s-0.8,1.3-0.9,2.3h5.5c0-1-0.2-1.8-0.7-2.3
		C36.7,29.4,36,29.2,35.2,29.2z"/>
	<path d="M44.8,33.2l-3.7-5.3h2l2.8,4.1l2.8-4.1h2l-3.7,5.3l3.9,5.5h-2l-2.9-4.3l-3,4.3h-2L44.8,33.2z"/>
	<path class="st0" d="M59.3,34.5c0-0.7,0.2-1.2,0.5-1.6c0.4-0.4,0.9-0.7,1.6-0.8V32c-0.7-0.1-1.2-0.4-1.6-0.8
		c-0.4-0.4-0.5-0.9-0.5-1.6v-4.6c0-0.3,0-0.6-0.1-0.8s-0.2-0.4-0.4-0.5c-0.2-0.1-0.3-0.2-0.6-0.2c-0.2,0-0.5-0.1-0.8-0.1v-1.4
		c0.5,0,1,0.1,1.4,0.2s0.8,0.3,1.1,0.5c0.3,0.2,0.5,0.5,0.7,0.9s0.3,0.8,0.3,1.3v4.7c0,0.3,0.1,0.6,0.2,0.8s0.3,0.4,0.5,0.6
		c0.2,0.1,0.5,0.2,0.8,0.3c0.3,0.1,0.7,0.1,1.1,0.1v1.5c-0.8,0-1.4,0.1-1.8,0.4c-0.4,0.3-0.6,0.7-0.6,1.4v4.6c0,0.5-0.1,0.9-0.3,1.3
		c-0.2,0.4-0.4,0.6-0.7,0.9c-0.3,0.2-0.7,0.4-1.1,0.5c-0.4,0.1-0.9,0.2-1.4,0.2v-1.4c0.3,0,0.5,0,0.8-0.1c0.2,0,0.4-0.1,0.6-0.2
		c0.2-0.1,0.3-0.3,0.4-0.5s0.1-0.4,0.1-0.8V34.5z"/>
</g>
</svg>
