<svg width="38" height="38" viewBox="0 0 38 38" fill="none" xmlns="http://www.w3.org/2000/svg">
<g clip-path="url(#clip0)">
<path d="M19 0.791656C8.5025 0.791656 0 9.15166 0 19.4623C0 27.7131 5.4435 34.7098 12.9913 37.1767C13.9412 37.3524 14.2896 36.7745 14.2896 36.2789C14.2896 35.8356 14.2738 34.6607 14.2658 33.1043C8.98067 34.2301 7.866 30.5995 7.866 30.5995C7.0015 28.4446 5.75225 27.8682 5.75225 27.8682C4.03117 26.7108 5.88525 26.7346 5.88525 26.7346C7.79317 26.8644 8.79542 28.6583 8.79542 28.6583C10.4896 31.5131 13.243 30.6882 14.3292 30.2116C14.5002 29.0035 14.9894 28.1817 15.5325 27.7147C11.3129 27.2476 6.878 25.6421 6.878 18.4886C6.878 16.4508 7.61425 14.7852 8.83342 13.4789C8.61967 13.0071 7.97842 11.1087 8.99967 8.53732C8.99967 8.53732 10.5909 8.03699 14.2247 10.4516C15.7447 10.0367 17.3597 9.83091 18.9747 9.82141C20.5897 9.83091 22.2047 10.0367 23.7247 10.4516C27.3347 8.03699 28.9259 8.53732 28.9259 8.53732C29.9472 11.1087 29.3059 13.0071 29.1159 13.4789C30.3272 14.7852 31.0634 16.4508 31.0634 18.4886C31.0634 25.6611 26.6222 27.2397 22.3947 27.6988C23.0597 28.2593 23.6772 29.4041 23.6772 31.1537C23.6772 33.6522 23.6534 35.6598 23.6534 36.2662C23.6534 36.7555 23.9859 37.3397 24.9597 37.1529C32.5613 34.7019 38 27.7004 38 19.4623C38 9.15166 29.4928 0.791656 19 0.791656Z" fill="white"/>
</g>
<defs>
<clipPath id="clip0">
<rect width="38" height="38" fill="white"/>
</clipPath>
</defs>
</svg>
