<svg width="32" height="32" viewBox="0 0 32 32" fill="none" xmlns="http://www.w3.org/2000/svg">
<path fill-rule="evenodd" clip-rule="evenodd" d="M7.11111 3.55556C7.11111 5.51923 5.51923 7.11111 3.55556 7.11111C1.59188 7.11111 0 5.51923 0 3.55556C0 1.59188 1.59188 0 3.55556 0C5.51923 0 7.11111 1.59188 7.11111 3.55556ZM7.11111 16C7.11111 17.9637 5.51923 19.5556 3.55556 19.5556C1.59188 19.5556 0 17.9637 0 16C0 14.0363 1.59188 12.4444 3.55556 12.4444C5.51923 12.4444 7.11111 14.0363 7.11111 16ZM3.55556 32C5.51923 32 7.11111 30.4081 7.11111 28.4444C7.11111 26.4808 5.51923 24.8889 3.55556 24.8889C1.59188 24.8889 0 26.4808 0 28.4444C0 30.4081 1.59188 32 3.55556 32ZM19.5556 3.55556C19.5556 5.51923 17.9637 7.11111 16 7.11111C14.0363 7.11111 12.4444 5.51923 12.4444 3.55556C12.4444 1.59188 14.0363 0 16 0C17.9637 0 19.5556 1.59188 19.5556 3.55556ZM16 19.5556C17.9637 19.5556 19.5556 17.9637 19.5556 16C19.5556 14.0363 17.9637 12.4444 16 12.4444C14.0363 12.4444 12.4444 14.0363 12.4444 16C12.4444 17.9637 14.0363 19.5556 16 19.5556ZM19.5556 28.4444C19.5556 30.4081 17.9637 32 16 32C14.0363 32 12.4444 30.4081 12.4444 28.4444C12.4444 26.4808 14.0363 24.8889 16 24.8889C17.9637 24.8889 19.5556 26.4808 19.5556 28.4444ZM28.4444 7.11111C30.4081 7.11111 32 5.51923 32 3.55556C32 1.59188 30.4081 0 28.4444 0C26.4808 0 24.8889 1.59188 24.8889 3.55556C24.8889 5.51923 26.4808 7.11111 28.4444 7.11111ZM32 16C32 17.9637 30.4081 19.5556 28.4444 19.5556C26.4808 19.5556 24.8889 17.9637 24.8889 16C24.8889 14.0363 26.4808 12.4444 28.4444 12.4444C30.4081 12.4444 32 14.0363 32 16ZM28.4444 32C30.4081 32 32 30.4081 32 28.4444C32 26.4808 30.4081 24.8889 28.4444 24.8889C26.4808 24.8889 24.8889 26.4808 24.8889 28.4444C24.8889 30.4081 26.4808 32 28.4444 32Z" fill="#0276FF"/>
</svg>
