<svg width="33" height="32" viewBox="0 0 33 32" fill="none" xmlns="http://www.w3.org/2000/svg">
<path fill-rule="evenodd" clip-rule="evenodd" d="M0.857095 1.1701C-0.285702 2.31289 -0.285699 4.16573 0.857098 5.30853L11.7551 16.2065L1.50264 26.4589C0.359841 27.6017 0.35984 29.4546 1.50264 30.5974C2.64543 31.7402 4.49827 31.7402 5.64107 30.5974L15.8935 20.3449L26.4589 30.9104C27.6017 32.0532 29.4546 32.0532 30.5974 30.9104C31.7402 29.7676 31.7402 27.9147 30.5974 26.7719L20.0319 16.2065L31.2429 4.99553C32.3857 3.85273 32.3857 1.99989 31.2429 0.857092C30.1001 -0.285703 28.2473 -0.285703 27.1045 0.857095L15.8935 12.0681L4.99553 1.1701C3.85273 0.0272997 1.99989 0.0272979 0.857095 1.1701Z" fill="#0276FF"/>
</svg>
