<svg width="34" height="23" viewBox="0 0 34 23" fill="none" xmlns="http://www.w3.org/2000/svg">
<path fill-rule="evenodd" clip-rule="evenodd" d="M2.87469 14.5133C1.35446 14.5133 0.12207 13.2809 0.12207 11.7607C0.12207 10.2405 1.35446 9.0081 2.87468 9.0081L23.571 9.0081L20.2321 5.6692C18.9994 4.43643 18.9994 2.43771 20.2321 1.20494C21.4649 -0.0278253 23.4636 -0.0278254 24.6964 1.20495L32.4298 8.93837C32.5477 9.02697 32.6607 9.12491 32.768 9.23218C33.3927 9.85684 33.7008 10.6782 33.6924 11.4968C33.6954 12.3086 33.3872 13.1213 32.7679 13.7407C32.661 13.8476 32.5483 13.9453 32.4308 14.0336L24.6965 21.7679C23.4638 23.0007 21.465 23.0007 20.2323 21.7679C18.9995 20.5352 18.9995 18.5364 20.2323 17.3037L23.0226 14.5133L2.87469 14.5133Z" fill="#0276FF"/>
</svg>
