<svg width="23" height="34" viewBox="0 0 23 34" fill="none" xmlns="http://www.w3.org/2000/svg">
<path fill-rule="evenodd" clip-rule="evenodd" d="M8.4868 2.87469C8.4868 1.35446 9.71918 0.12207 11.2394 0.12207C12.7596 0.12207 13.992 1.35446 13.992 2.87468V23.571L17.3309 20.2321C18.5637 18.9994 20.5624 18.9994 21.7952 20.2321C23.0279 21.4649 23.0279 23.4636 21.7952 24.6964L14.0618 32.4298C13.9731 32.5477 13.8752 32.6607 13.7679 32.768C13.1433 33.3927 12.322 33.7008 11.5033 33.6924C10.6915 33.6954 9.8788 33.3872 9.25943 32.7679C9.15251 32.661 9.05487 32.5483 8.9665 32.4308L1.2322 24.6965C-0.00057441 23.4638 -0.000576347 21.465 1.23219 20.2323C2.46496 18.9995 4.46368 18.9995 5.69645 20.2323L8.4868 23.0226V2.87469Z" fill="#0276FF"/>
</svg>
